# AST/ASF file generated using VICON BodyLanguage
# -----------------------------------------------
:version 1.10
:name VICON
:units
  mass 1.0
  length 0.45
  angle deg
:documentation
   .ast/.asf automatically generated from VICON data using
   VICON BodyBuilder and BodyLanguage model FoxedUp or BRILLIANT.MOD
:root
   order TX TY TZ RX RY RZ
   axis XYZ
   position 0 0 0  
   orientation 0 0 0 
:bonedata
  begin
     id 1 
     name lhipjoint
     direction 0.662698 -0.695252 0.27831 
     length 2.53073 
     axis 0 0 0  XYZ
  end
  begin
     id 2 
     name lfemur
     direction 0.34202 -0.939693 0  
     length 7.16147  
     axis 0 0 20  XYZ
    dof rx ry rz
    limits (-160.0 20.0)
           (-70.0 70.0)
           (-60.0 70.0)
  end
  begin
     id 3 
     name ltibia
     direction 0.34202 -0.939693 0   
     length 7.63967   
     axis 0 0 20   XYZ
    dof rx
    limits (-10.0 170.0)
  end
  begin
     id 4 
     name lfoot
     direction 0.0938457 -0.257721 0.961651   
     length 1.89793   
     axis -90 7.62852e-016 20   XYZ
    dof rx rz
    limits (-45.0 90.0)
           (-70.0 20.0)
  end
  begin
     id 5 
     name ltoes
     direction -0.00116841 -0.0030592 0.999995   
     length 0.955649   
     axis -90 7.62852e-016 20   XYZ
    dof rx
    limits (-90.0 20.0)
  end
  begin
     id 6 
     name rhipjoint
     direction -0.649445 -0.705948 0.282592   
     length 2.49238  
     axis 0 0 0  XYZ 
  end
  begin
     id 7 
     name rfemur
     direction -0.34202 -0.939693 0   
     length 6.90728   
     axis 0 0 -20   XYZ
    dof rx ry rz
    limits (-160.0 20.0)
           (-70.0 70.0)
           (-70.0 60.0)
  end
  begin
     id 8 
     name rtibia
     direction -0.34202 -0.939693 0   
     length 7.72868   
     axis 0 0 -20   XYZ
    dof rx
    limits (-10.0 170.0)
 end
 begin
     id 9 
     name rfoot
     direction -0.0920068 -0.252865 0.963117   
     length 1.97476  
     axis -90 -7.62852e-016 -20   XYZ
    dof rx rz
    limits (-45.0 90.0)
           (-20.0 70.0)
  end
  begin
     id 10 
     name rtoes
     direction 0.000391322 0.00230649 0.999997   
     length 0.992641   
     axis -90 -7.62852e-016 -20   XYZ
    dof rx
    limits (-90.0 20.0)
  end
  begin
     id 11 
     name lowerback
     direction -0.00875327 0.998321 -0.0572635   
     length 2.20024   
     axis 0 0 0   XYZ
    dof rx ry rz
    limits (-20.0 45.0)
           (-30.0 30.0)
           (-30.0 30.0)
  end
  begin
     id 12 
     name upperback
     direction 0.00753931 0.999972 -0.000360425   
     length 2.20538   
     axis 0 0 0   XYZ
    dof rx ry rz
    limits (-20.0 45.0)
           (-30.0 30.0)
           (-30.0 30.0)
  end
  begin
     id 13 
     name thorax
     direction 0.0117767 0.999601 0.0256663   
     length 2.21508   
     axis 0 0 0   XYZ
    dof rx ry rz
    limits (-20.0 45.0)
           (-30.0 30.0)
           (-30.0 30.0)
  end
  begin
     id 14 
     name lowerneck
     direction 0.060228 0.994909 0.0807986   
     length 1.7607   
     axis 0 0 0   XYZ
    dof rx ry rz
    limits (-20.0 45.0)
           (-30.0 30.0)
           (-30.0 30.0)
  end
  begin
     id 15 
     name upperneck
     direction -0.0563647 0.959594 -0.275685   
     length 1.75612   
     axis 0 0 0   XYZ
    dof rx ry rz
    limits (-20.0 45.0)
           (-30.0 30.0)
           (-30.0 30.0)
  end
  begin
     id 16
     name head
     direction -0.0161544 0.99458 -0.102714  
     length 1.79288  
     axis 0 0 0   XYZ
    dof rx ry rz
    limits (-20.0 45.0)
           (-30.0 30.0)
           (-30.0 30.0)
  end
  begin
     id 17 
     name lclavicle
     direction 0.93913 0.332189 -0.087669  
     length 3.52087  
     axis 0 0 0   XYZ
    dof ry rz
    limits (-20.0 10.0)
           (0.0 20.0)
  end
  begin
     id 18 
     name lhumerus
     direction 1 -4.48974e-011 -2.70836e-027   
     length 5.35289   
     axis -180 -30 -90   XYZ
    dof rx ry rz
    limits (-60.0 90.0)
           (-90.0 90.0)
           (-90.0 90.0)
  end
  begin
     id 19
     name lradius
     direction 1 -4.48961e-011 -9.76021e-027   
     length 3.27727   
     axis -180 -30 -90   XYZ
    dof rx
    limits (-10.0 170.0)
  end
  begin
     id 20
     name lwrist
     direction 1 -4.49103e-011 -2.23668e-026   
     length 1.63864   
     axis 1.44924e-014 90 90   XYZ
    dof ry
    limits (-180.0 0.0)
 end
  begin
     id 21 
     name lhand
     direction 1 3.0697e-005 0.000161777   
     length 0.54443   
     axis 2.85318e-014 90 90   XYZ
    dof rx rz
    limits (-90.0 90.0)
           (-45.0 45.0)
  end
  begin
     id 22 
     name lfingers
     direction 1 -4.49027e-011 -8.9447e-026   
     length 0.438912   
     axis 5.70628e-014 90 90   XYZ
    dof rx
    limits (0.0 90.0)
  end
  begin
     id 23
     name lthumb
     direction 0.707058 2.6516e-005 0.707156   
     length 0.630274   
     axis -90 45 -3.53137e-014   XYZ
    dof rx rz
    limits (-45.0 45.0)
           (-45.0 45.0)
  end
  begin
     id 24 
     name rclavicle
     direction -0.95274 0.284984 -0.105215   
     length 3.43401  
     axis 0 0 0   XYZ 
    dof ry rz
    limits (-10.0 20.0)
           (-20.0 0.0)
  end
  begin
     id 25 
     name rhumerus
     direction -0.999999 -0.000575019 -0.00106829  
     length 5.52077   
     axis -180 30 90   XYZ
    dof rx ry rz
    limits (-90.0 60.0)
           (-90.0 90.0)
           (-90.0 90.0)
  end
  begin
     id 26 
     name rradius
     direction -1 -4.4879e-011 -6.35415e-027   
     length 3.32364   
     axis -180 30 90   XYZ
    dof rx
    limits (-10.0 170.0)
  end
  begin
     id 27 
     name rwrist
     direction -1 -4.49048e-011 -9.98542e-027   
     length 1.66182   
     axis 6.32482e-015 -90 -90   XYZ
    dof ry
    limits (-180.0 0.0)
  end
  begin
     id 28
     name rhand
     direction -1 -4.48978e-011 -1.99771e-026   
     length 0.732235   
     axis 1.27479e-014 -90 -90   XYZ
    dof rx rz
    limits (-90.0 90.0)
           (-45.0 45.0)
  end
  begin
     id 29
     name rfingers
     direction -1 -4.49144e-011 -3.99245e-026   
     length 0.590347   
     axis 2.5496e-014 -90 -90   XYZ
    dof rx
    limits (0.0 90.0)
  end
  begin
     id 30
     name rthumb
     direction -0.707107 -6.35121e-011 0.707107   
     length 0.847624   
     axis -90 -45 -2.82974e-014   XYZ
    dof rx rz
    limits (-45.0 45.0)
           (-45.0 45.0)
  end
:hierarchy
  begin
    root lhipjoint rhipjoint lowerback
    lhipjoint lfemur
    lfemur ltibia
    ltibia lfoot
    lfoot ltoes
    rhipjoint rfemur
    rfemur rtibia
    rtibia rfoot
    rfoot rtoes
    lowerback upperback
    upperback thorax
    thorax lowerneck lclavicle rclavicle
    lowerneck upperneck
    upperneck head
    lclavicle lhumerus
    lhumerus lradius
    lradius lwrist
    lwrist lhand lthumb
    lhand lfingers
    rclavicle rhumerus
    rhumerus rradius
    rradius rwrist
    rwrist rhand rthumb
    rhand rfingers
  end

#!OML:ASF G:\Work\Work\Patient Classification 1\Elijah\terrain1\Elijah.ASF
:FULLY-SPECIFIED
:DEGREES
325
root 14.2526 21.9048 18.8604 7.70184 4.36647 -2.54233
lowerback 6.66887 1.47018 9.46747
upperback 0.913052 2.79018 5.03751
thorax -2.60129 1.31468 -0.298233
lowerneck -12.8378 13.7032 12.3163
upperneck 36.5658 22.6986 -12.1005
head 19.2841 9.65352 -2.74135
rclavicle -1.35174e-014 -3.02153e-014
rhumerus -27.1201 -4.97095 -76.2902
rradius 38.0846
rwrist -4.51511
rhand -13.681 18.0719
rfingers 7.12502
rthumb 12.4367 -11.5381
lclavicle -1.35174e-014 -3.02153e-014
lhumerus -42.0387 15.3628 77.5084
lradius 34.2076
lwrist 0.4936
lhand -14.6473 23.7693
lfingers 7.12502
lthumb 11.5049 53.4335
rfemur -1.55816 -10.0164 29.1964
rtibia 7.78617
rfoot -7.66217 -5.05753
rtoes -2.59168
lfemur -40.556 9.42193 -21.084
ltibia 71.1536
lfoot -2.26541 -10.2583
ltoes -9.35449
326
root 14.2298 21.9099 18.9361 7.54942 3.73997 -2.53346
lowerback 7.24203 1.66526 9.03623
upperback 0.877836 3.09809 5.07142
thorax -2.96199 1.45765 -0.0734919
lowerneck -12.7754 13.6517 12.201
upperneck 36.5972 22.6599 -12.0915
head 19.2561 9.6284 -2.7371
rclavicle -1.11319e-014 -1.27222e-014
rhumerus -27.1419 -4.83219 -76.3264
rradius 38.1171
rwrist -4.48402
rhand -14.6393 19.3935
rfingers 7.12502
rthumb 11.5127 -10.2703
lclavicle -1.11319e-014 -1.27222e-014
lhumerus -42.2561 15.1852 77.5926
lradius 34.1953
lwrist 0.655512
lhand -14.7253 23.3756
lfingers 7.12502
lthumb 11.4297 53.0441
rfemur -0.52028 -9.4247 29.2411
rtibia 6.61501
rfoot -6.64938 -4.97424
rtoes -5.33766
lfemur -40.5563 9.63718 -21.1059
ltibia 69.4027
lfoot -2.74536 -10.4459
ltoes -10.055
327
root 14.2628 21.9428 19.0581 7.93627 4.12779 -2.34465
lowerback 6.25761 1.53996 9.32927
upperback 0.917759 2.81254 4.93101
thorax -2.36465 1.33543 -0.32144
lowerneck -12.932 13.6065 11.7617
upperneck 36.5766 22.5755 -11.8439
head 19.1284 9.55541 -2.57056
rclavicle 1.35174e-014 2.70347e-014
rhumerus -26.8284 -4.62848 -76.447
rradius 38.4235
rwrist -5.28175
rhand -14.7438 19.4007
rfingers 7.12502
rthumb 11.4118 -10.2687
lclavicle 1.35174e-014 2.70347e-014
lhumerus -42.1313 15.401 77.6037
lradius 34.0529
lwrist 0.333315
lhand -14.4483 23.8693
lfingers 7.12502
lthumb 11.6968 53.5228
rfemur -0.196066 -9.78651 28.8093
rtibia 6.09602
rfoot -7.78265 -5.18581
rtoes 0.807404
lfemur -40.6926 8.7114 -21.5723
ltibia 67.3903
lfoot -3.5623 -10.2895
ltoes -12.8291
328
root 14.2763 21.9373 19.1453 8.09618 4.09071 -2.44679
lowerback 5.98791 1.52125 9.56531
upperback 0.957284 2.76083 4.89872
thorax -2.16272 1.31597 -0.4702
lowerneck -12.8183 13.542 12.2769
upperneck 36.8964 22.6282 -12.3052
head 19.518 9.58856 -2.86394
rclavicle 3.57812e-015 1.43125e-014
rhumerus -26.6509 -4.59466 -76.5517
rradius 38.8419
rwrist -5.54054
rhand -14.655 19.3839
rfingers 7.12502
rthumb 11.4975 -10.2808
lclavicle 3.57812e-015 1.43125e-014
lhumerus -42.0179 15.4392 77.7133
lradius 34.1507
lwrist 0.110315
lhand -14.0033 24.2845
lfingers 7.12502
lthumb 12.1259 53.9131
rfemur -0.151872 -9.71501 28.838
rtibia 6.28202
rfoot -7.4807 -5.23544
rtoes -0.630001
lfemur -40.6122 8.22998 -21.5708
ltibia 65.3589
lfoot -4.27221 -10.3057
ltoes -12.9738
329
root 14.271 21.9359 19.2084 8.20836 3.79083 -2.56437
lowerback 6.12716 1.58796 9.48614
upperback 0.979122 2.86184 4.93909
thorax -2.21623 1.36498 -0.39643
lowerneck -12.9436 13.5808 11.7586
upperneck 36.4842 22.5572 -11.9673
head 19.0999 9.53329 -2.62996
rclavicle 1.86858e-014 7.95139e-015
rhumerus -26.5162 -4.63221 -76.6038
rradius 39.3585
rwrist -5.60661
rhand -14.4482 19.2689
rfingers 7.12502
rthumb 11.6969 -10.3846
lclavicle 1.86858e-014 7.95139e-015
lhumerus -41.82 15.3687 77.9396
lradius 34.1263
lwrist 0.134726
lhand -13.5463 24.2895
lfingers 7.12502
lthumb 12.5665 53.8915
rfemur 0.62823 -9.38423 29.0166
rtibia 4.96101
rfoot -6.63669 -5.26902
rtoes -1.81289
lfemur -40.6857 7.96582 -21.446
ltibia 63.2159
lfoot -4.81175 -10.4197
ltoes -13.1213
330
root 14.27 21.9315 19.2573 8.32067 3.39728 -2.3197
lowerback 6.70449 1.65689 9.06725
upperback 0.816871 3.01582 4.86753
thorax -2.71631 1.42281 -0.277316
lowerneck -12.776 13.6773 12.1599
upperneck 36.6962 22.8105 -12.2669
head 19.3864 9.65533 -2.77624
rclavicle 3.57812e-015 2.54444e-014
rhumerus -26.6588 -4.56209 -76.6526
rradius 39.9519
rwrist -5.82374
rhand -14.4693 19.3331
rfingers 7.12502
rthumb 11.6766 -10.3215
lclavicle 3.57812e-015 2.54444e-014
lhumerus -41.7007 15.5712 77.9818
lradius 33.6894
lwrist 0.0224246
lhand -13.5352 23.9358
lfingers 7.12502
lthumb 12.5773 53.5373
rfemur 0.749018 -9.01891 28.7654
rtibia 4.97551
rfoot -6.58158 -5.19267
rtoes -2.79815
lfemur -40.6059 7.60683 -21.7241
ltibia 60.8538
lfoot -5.18026 -10.2888
ltoes -13.2591
331
root 14.3219 21.9572 19.4023 8.95726 4.02963 -3.0471
lowerback 5.45485 1.48147 10.5105
upperback 0.58227 2.72739 4.93228
thorax -2.21761 1.27952 -0.935784
lowerneck -12.5714 13.6751 12.52
upperneck 36.9933 22.9218 -12.5138
head 19.675 9.72469 -2.93851
rclavicle -2.5842e-014 -1.59028e-014
rhumerus -27.1085 -4.35097 -76.6691
rradius 40.7784
rwrist -5.9952
rhand -14.5741 19.2693
rfingers 7.12502
rthumb 11.5755 -10.391
lclavicle -2.5842e-014 -1.59028e-014
lhumerus -41.6082 15.8548 77.9416
lradius 33.0017
lwrist -0.344547
lhand -13.8303 23.195
lfingers 7.12502
lthumb 12.2927 52.8137
rfemur 0.961815 -9.43578 29.267
rtibia 4.29434
rfoot -6.44316 -5.12459
rtoes -3.73113
lfemur -40.8772 6.63318 -21.1547
ltibia 58.4025
lfoot -5.67743 -10.3846
ltoes -12.7633
332
root 14.2732 21.9703 19.4893 8.68659 2.74089 -2.3219
lowerback 6.26448 1.83001 8.77775
upperback 0.67872 3.17977 4.85385
thorax -2.61712 1.50778 -0.13207
lowerneck -12.8051 13.7293 11.8531
upperneck 36.6743 22.9008 -12.1048
head 19.3023 9.66631 -2.62973
rclavicle -4.73108e-014 -2.22639e-014
rhumerus -27.1976 -3.9658 -76.7577
rradius 41.4179
rwrist -6.16617
rhand -14.7354 19.3384
rfingers 7.12502
rthumb 11.4199 -10.3306
lclavicle -4.73108e-014 -2.22639e-014
lhumerus -41.9909 15.7064 78.0818
lradius 33.2184
lwrist -0.370771
lhand -13.4411 23.1318
lfingers 7.12502
lthumb 12.668 52.7276
rfemur 2.91454 -8.32706 28.5474
rtibia 1.71043
rfoot -4.96822 -5.1637
rtoes -3.55915
lfemur -40.1464 7.05133 -21.7066
ltibia 55.6484
lfoot -5.94857 -10.4675
ltoes -12.7766
333
root 14.2852 21.9874 19.5791 8.79578 2.711 -2.34086
lowerback 6.11528 1.78309 8.89472
upperback 0.794629 3.09266 4.7902
thorax -2.40779 1.47264 -0.24764
lowerneck -12.7514 13.8152 12.0235
upperneck 36.3846 23.0108 -12.3139
head 19.2118 9.71848 -2.71771
rclavicle -5.96354e-015 1.27222e-014
rhumerus -26.9457 -3.69592 -76.9606
rradius 41.7193
rwrist -6.45818
rhand -14.9575 19.6561
rfingers 7.12502
rthumb 11.2058 -10.0247
lclavicle -5.96354e-015 1.27222e-014
lhumerus -41.5152 15.9435 78.1558
lradius 32.9562
lwrist -0.723316
lhand -12.8136 23.7537
lfingers 7.12502
lthumb 13.2729 53.311
rfemur 3.97587 -8.27946 28.4438
rtibia 2.8625e-014
rfoot -4.12732 -5.13025
rtoes -3.7361
lfemur -39.8886 6.41764 -21.6295
ltibia 52.9075
lfoot -5.97598 -10.6562
ltoes -11.8223
334
root 14.3017 22.0016 19.6799 9.00853 2.72448 -2.48872
lowerback 5.58826 1.77034 9.17261
upperback 0.923142 3.01 4.75249
thorax -1.96666 1.44759 -0.410079
lowerneck -12.7735 13.9042 11.9871
upperneck 36.1113 23.0744 -12.2908
head 19.0482 9.74661 -2.67572
rclavicle 4.33351e-014 7.31528e-014
rhumerus -26.7944 -3.57458 -77.1013
rradius 42.0856
rwrist -6.76654
rhand -14.9453 19.6831
rfingers 7.12502
rthumb 11.2175 -9.99701
lclavicle 4.33351e-014 7.31528e-014
lhumerus -41.1419 15.9536 78.3158
lradius 32.9088
lwrist -0.825635
lhand -12.5858 24.0263
lfingers 7.12502
lthumb 13.4925 53.5693
rfemur 4.06538 -8.23882 28.4887
rtibia -2.06736e-014
rfoot -4.13983 -5.07684
rtoes -4.20982
lfemur -39.6369 5.80694 -21.4318
ltibia 50.0859
lfoot -6.02537 -10.9447
ltoes -10.7605
335
root 14.3161 22.0071 19.785 9.27871 2.61617 -2.39013
lowerback 5.0788 1.78284 9.09576
upperback 0.959327 2.94971 4.68301
thorax -1.64725 1.43036 -0.416349
lowerneck -12.612 13.8512 12.4639
upperneck 36.2666 23.1716 -12.8552
head 19.3522 9.78856 -2.99705
rclavicle -1.03368e-014 -6.36111e-015
rhumerus -26.8341 -3.45174 -77.1718
rradius 42.5412
rwrist -6.6589
rhand -14.7975 19.6396
rfingers 7.12502
rthumb 11.3601 -10.0327
lclavicle -1.03368e-014 -6.36111e-015
lhumerus -40.9808 15.9147 78.4975
lradius 32.8419
lwrist -0.875945
lhand -12.3733 23.8024
lfingers 7.12502
lthumb 13.6973 53.3317
rfemur 4.18687 -8.11043 28.2827
rtibia 1.74931e-014
rfoot -4.10481 -5.09996
rtoes -4.39504
lfemur -39.3135 5.1828 -21.4779
ltibia 47.312
lfoot -6.26612 -11.2763
ltoes -10.5335
336
root 14.3335 22.0107 19.8953 9.5015 2.55032 -2.45511
lowerback 4.64371 1.71641 9.13373
upperback 0.986668 2.80374 4.69597
thorax -1.38383 1.36774 -0.399262
lowerneck -12.4158 13.866 12.614
upperneck 36.0327 23.2673 -13.2055
head 19.2907 9.8265 -3.16412
rclavicle 2.22639e-014 4.29375e-014
rhumerus -26.8921 -3.12085 -77.2656
rradius 42.9976
rwrist -6.3771
rhand -14.7183 19.7693
rfingers 7.12502
rthumb 11.4364 -9.89879
lclavicle 2.22639e-014 4.29375e-014
lhumerus -40.9045 16.1345 78.5932
lradius 32.802
lwrist -0.959314
lhand -11.973 23.9003
lfingers 7.12502
lthumb 14.0831 53.4031
rfemur 4.41272 -8.00314 28.245
rtibia -1.90833e-014
rfoot -4.19735 -5.11678
rtoes -4.80339
lfemur -38.9027 4.55274 -21.3377
ltibia 44.5615
lfoot -6.32054 -11.5943
ltoes -9.91591
337
root 14.3356 22.0107 19.9741 9.56806 2.38771 -2.42208
lowerback 4.58855 1.6777 8.91246
upperback 1.13072 2.72091 4.67657
thorax -1.21809 1.33619 -0.289599
lowerneck -12.6131 14.0383 12.2711
upperneck 35.612 23.3751 -12.9337
head 18.9723 9.85025 -2.92988
rclavicle 1.43125e-014 -1.11319e-014
rhumerus -26.7373 -2.73999 -77.4282
rradius 43.5462
rwrist -6.40603
rhand -14.6345 19.6397
rfingers 7.12502
rthumb 11.5172 -10.0238
lclavicle 1.43125e-014 -1.11319e-014
lhumerus -40.6582 16.1851 78.7235
lradius 32.914
lwrist -0.941865
lhand -11.331 24.033
lfingers 7.12502
lthumb 14.7017 53.4917
rfemur 4.66584 -7.84004 28.1747
rtibia 1.43125e-014
rfoot -4.25363 -5.0873
rtoes -5.90557
lfemur -38.4782 3.97193 -21.2275
ltibia 41.9228
lfoot -6.14831 -11.699
ltoes -9.35455
